<svg width="11" height="10" viewBox="0 0 11 10" fill="none" xmlns="http://www.w3.org/2000/svg">
<path d="M10.7339 2.0493C10.5632 1.64828 10.3171 1.28487 10.0094 0.979431C9.7014 0.673079 9.33829 0.429625 8.9398 0.262308C8.52658 0.0881223 8.08339 -0.001036 7.63594 9.0821e-06C7.00821 9.0821e-06 6.39576 0.174444 5.86352 0.503933C5.73619 0.582752 5.61523 0.669324 5.50063 0.763648C5.38603 0.669324 5.26507 0.582752 5.13774 0.503933C4.6055 0.174444 3.99305 9.0821e-06 3.36532 9.0821e-06C2.9133 9.0821e-06 2.47528 0.0878729 2.06146 0.262308C1.66165 0.430283 1.30131 0.671908 0.991896 0.979431C0.683755 1.28453 0.437603 1.64802 0.267392 2.0493C0.0904039 2.46665 0 2.90985 0 3.36597C0 3.79624 0.086584 4.2446 0.258479 4.70072C0.402361 5.08189 0.608635 5.47728 0.872206 5.87654C1.28985 6.50839 1.8641 7.16736 2.57715 7.83539C3.75876 8.94273 4.92892 9.70766 4.97858 9.73867L5.28035 9.93507C5.41405 10.0216 5.58594 10.0216 5.71964 9.93507L6.02141 9.73867C6.07107 9.70637 7.23995 8.94273 8.42284 7.83539C9.13589 7.16736 9.71014 6.50839 10.1278 5.87654C10.3914 5.47728 10.5989 5.08189 10.7415 4.70072C10.9134 4.2446 11 3.79624 11 3.36597C11.0013 2.90985 10.9109 2.46665 10.7339 2.0493ZM5.50063 8.91301C5.50063 8.91301 0.967703 5.9657 0.967703 3.36597C0.967703 2.0493 2.04109 0.982015 3.36532 0.982015C4.29609 0.982015 5.10336 1.5092 5.50063 2.2793C5.8979 1.5092 6.70517 0.982015 7.63594 0.982015C8.96017 0.982015 10.0336 2.0493 10.0336 3.36597C10.0336 5.9657 5.50063 8.91301 5.50063 8.91301Z" fill="white"/>
</svg>
