<svg width="17" height="17" viewBox="0 0 17 17" fill="none" xmlns="http://www.w3.org/2000/svg">
<path d="M8.26667 4.15395C5.99076 4.15395 4.15399 5.99072 4.15399 8.26663C4.15399 10.5425 5.99076 12.3793 8.26667 12.3793C10.5426 12.3793 12.3794 10.5425 12.3794 8.26663C12.3794 5.99072 10.5426 4.15395 8.26667 4.15395ZM8.26667 10.9396C6.79485 10.9396 5.59373 9.73846 5.59373 8.26663C5.59373 6.79481 6.79485 5.59369 8.26667 5.59369C9.7385 5.59369 10.9396 6.79481 10.9396 8.26663C10.9396 9.73846 9.7385 10.9396 8.26667 10.9396ZM12.5478 3.02703C12.0164 3.02703 11.5873 3.45614 11.5873 3.98752C11.5873 4.5189 12.0164 4.94802 12.5478 4.94802C13.0792 4.94802 13.5083 4.52091 13.5083 3.98752C13.5084 3.86134 13.4837 3.73637 13.4355 3.61977C13.3873 3.50316 13.3165 3.39722 13.2273 3.30799C13.1381 3.21877 13.0322 3.14803 12.9155 3.09982C12.7989 3.0516 12.674 3.02687 12.5478 3.02703ZM16.2835 8.26663C16.2835 7.15976 16.2935 6.06291 16.2314 4.95804C16.1692 3.67471 15.8764 2.53575 14.938 1.59731C13.9976 0.656869 12.8606 0.366114 11.5773 0.303953C10.4704 0.241791 9.37355 0.251817 8.26868 0.251817C7.1618 0.251817 6.06496 0.241791 4.96009 0.303953C3.67675 0.366114 2.53779 0.658874 1.59936 1.59731C0.658914 2.53775 0.368159 3.67471 0.305997 4.95804C0.243836 6.06492 0.253862 7.16177 0.253862 8.26663C0.253862 9.3715 0.243836 10.4704 0.305997 11.5752C0.368159 12.8586 0.660919 13.9975 1.59936 14.936C2.5398 15.8764 3.67675 16.1672 4.96009 16.2293C6.06696 16.2915 7.16381 16.2815 8.26868 16.2815C9.37555 16.2815 10.4724 16.2915 11.5773 16.2293C12.8606 16.1672 13.9996 15.8744 14.938 14.936C15.8784 13.9955 16.1692 12.8586 16.2314 11.5752C16.2955 10.4704 16.2835 9.37351 16.2835 8.26663ZM14.5189 12.9949C14.3725 13.3599 14.1961 13.6326 13.9133 13.9133C13.6306 14.196 13.3599 14.3725 12.995 14.5189C11.9402 14.938 9.43571 14.8437 8.26667 14.8437C7.09764 14.8437 4.59113 14.938 3.53639 14.5209C3.17144 14.3745 2.89873 14.198 2.618 13.9153C2.33527 13.6326 2.15881 13.3619 2.01243 12.9969C1.59535 11.9402 1.68959 9.43567 1.68959 8.26663C1.68959 7.0976 1.59535 4.59109 2.01243 3.53635C2.15881 3.1714 2.33527 2.89869 2.618 2.61796C2.90074 2.33723 3.17144 2.15877 3.53639 2.01239C4.59113 1.59531 7.09764 1.68955 8.26667 1.68955C9.43571 1.68955 11.9422 1.59531 12.997 2.01239C13.3619 2.15877 13.6346 2.33523 13.9153 2.61796C14.1981 2.9007 14.3745 3.1714 14.5209 3.53635C14.938 4.59109 14.8438 7.0976 14.8438 8.26663C14.8438 9.43567 14.938 11.9402 14.5189 12.9949Z" fill="black"/>
</svg>
