<svg width="13" height="16" viewBox="0 0 13 16" fill="none" xmlns="http://www.w3.org/2000/svg">
<path d="M5.81211 10.3932C5.39994 12.5137 4.89765 14.5464 3.40804 15.6083C2.94885 12.4036 4.08271 9.99738 4.61007 7.44258C3.71129 5.95651 4.71821 2.96743 6.61216 3.70431C8.94336 4.60981 4.59362 9.22663 7.5133 9.80412C10.5623 10.4055 11.8066 4.60673 9.9158 2.72104C7.18497 -0.00316408 1.96544 2.65713 2.60799 6.5571C2.76392 7.51034 3.76614 7.79908 3.0084 9.11498C1.2602 8.73461 0.738326 7.37944 0.805715 5.57306C0.913851 2.61632 3.50834 0.547374 6.11144 0.26017C9.40333 -0.102492 12.4931 1.44825 12.9201 4.49046C13.4005 7.92536 11.4344 11.6459 7.91372 11.378C6.9593 11.3048 6.55966 10.8397 5.81211 10.3932Z" fill="black"/>
</svg>
