<svg width="13" height="13" viewBox="0 0 13 13" fill="none" xmlns="http://www.w3.org/2000/svg">
<path fill-rule="evenodd" clip-rule="evenodd" d="M12.7562 10.8063L9.66063 7.69438C10.2496 6.8725 10.5652 5.88614 10.5625 4.875C10.5625 2.18563 8.37687 0 5.6875 0C2.99813 0 0.8125 2.18563 0.8125 4.875C0.8125 7.56437 2.99813 9.75 5.6875 9.75C6.74375 9.75 7.7025 9.41688 8.50688 8.84813L11.6188 11.9437C11.7731 12.1062 11.9844 12.1875 12.1875 12.1875C12.3906 12.1875 12.61 12.1144 12.7562 11.9437C12.8316 11.8686 12.8913 11.7793 12.9321 11.681C12.9729 11.5827 12.9939 11.4773 12.9939 11.3709C12.9939 11.2645 12.9729 11.1592 12.9321 11.0609C12.8913 10.9626 12.8316 10.8733 12.7562 10.7981V10.8063ZM5.6875 8.69375C3.58313 8.69375 1.86875 6.97937 1.86875 4.875C1.86875 2.77063 3.58313 1.05625 5.6875 1.05625C7.79187 1.05625 9.50625 2.77063 9.50625 4.875C9.50625 6.97937 7.79187 8.69375 5.6875 8.69375Z" fill="white"/>
</svg>
