<svg width="18" height="15" viewBox="0 0 18 15" fill="none" xmlns="http://www.w3.org/2000/svg">
<path d="M17.0417 2.38241C16.4281 2.6471 15.7603 2.83759 15.0725 2.91178C15.7866 2.48755 16.3214 1.81734 16.5765 1.02689C15.9064 1.4255 15.1723 1.70502 14.4068 1.85303C14.0869 1.511 13.6999 1.23852 13.2701 1.05257C12.8402 0.86662 12.3767 0.771191 11.9083 0.772225C10.0134 0.772225 8.48945 2.30821 8.48945 4.19311C8.48945 4.4578 8.52153 4.72249 8.57367 4.97715C5.7363 4.82876 3.20572 3.47324 1.52335 1.39785C1.21681 1.92144 1.05617 2.51761 1.05815 3.12433C1.05815 4.31142 1.66171 5.35814 2.5821 5.97374C2.0397 5.95237 1.51001 5.80329 1.03609 5.53861V5.58071C1.03609 7.24303 2.21114 8.62061 3.77721 8.93743C3.48316 9.01381 3.18067 9.05289 2.87687 9.05374C2.65429 9.05374 2.44374 9.03168 2.23119 9.0016C2.66432 10.3571 3.92559 11.3417 5.4275 11.3738C4.25244 12.2942 2.78062 12.8356 1.18247 12.8356C0.895724 12.8356 0.631037 12.8255 0.356323 12.7935C1.87226 13.766 3.67093 14.3274 5.60796 14.3274C11.8963 14.3274 15.3372 9.1179 15.3372 4.59616C15.3372 4.44777 15.3372 4.29939 15.3272 4.151C15.9929 3.66374 16.5765 3.06017 17.0417 2.38241Z" fill="black"/>
</svg>
