<svg width="19" height="15" viewBox="0 0 19 15" fill="none" xmlns="http://www.w3.org/2000/svg">
<path d="M13.3047 4.85069C13.423 4.85069 13.5413 4.8547 13.6576 4.86071C13.1683 2.28001 10.4833 0.306885 7.24292 0.306885C3.65761 0.306885 0.750061 2.72517 0.750061 5.70892C0.750061 7.33514 1.62433 8.80095 2.99389 9.79152C3.05038 9.8314 3.09644 9.88428 3.1282 9.94571C3.15996 10.0071 3.17648 10.0753 3.17636 10.1444C3.17636 10.1926 3.16634 10.2367 3.15431 10.2828C3.04402 10.6899 2.86957 11.3415 2.86155 11.3716C2.84751 11.4238 2.82746 11.4759 2.82746 11.53C2.82746 11.6483 2.92371 11.7466 3.04402 11.7466C3.09014 11.7466 3.12824 11.7286 3.16834 11.7065L4.59003 10.8864C4.69631 10.8242 4.81061 10.7861 4.93493 10.7861C4.9991 10.7861 5.06326 10.7961 5.12543 10.8142C5.78915 11.0047 6.50501 11.1109 7.24493 11.1109C7.36524 11.1109 7.48355 11.1089 7.60186 11.1029C7.45949 10.6818 7.38329 10.2387 7.38329 9.77949C7.38329 7.05642 10.0342 4.85069 13.3047 4.85069ZM9.40855 3.11618C9.88579 3.11618 10.2748 3.50319 10.2748 3.98043C10.2748 4.45767 9.88779 4.84467 9.40855 4.84467C8.93131 4.84467 8.5423 4.45767 8.5423 3.98043C8.5423 3.50319 8.93131 3.11618 9.40855 3.11618ZM5.07931 4.84467C4.60207 4.84467 4.21306 4.45767 4.21306 3.98043C4.21306 3.50319 4.60006 3.11618 5.07931 3.11618C5.55855 3.11618 5.94556 3.50319 5.94556 3.98043C5.94556 4.45767 5.55654 4.84467 5.07931 4.84467ZM16.8459 13.1783C17.9868 12.3522 18.7147 11.133 18.7147 9.77548C18.7147 7.28902 16.2924 5.27379 13.3027 5.27379C10.3149 5.27379 7.89061 7.28902 7.89061 9.77548C7.89061 12.2619 10.3129 14.2772 13.3027 14.2772C13.9203 14.2772 14.5178 14.1889 15.0693 14.0305C15.1214 14.0145 15.1735 14.0065 15.2277 14.0065C15.3319 14.0065 15.4262 14.0386 15.5144 14.0887L16.6995 14.7705C16.7336 14.7905 16.7657 14.8045 16.8038 14.8045C16.8275 14.8047 16.8511 14.8002 16.8731 14.7913C16.8951 14.7823 16.9152 14.7691 16.9321 14.7524C16.9488 14.7355 16.962 14.7155 16.971 14.6934C16.9799 14.6714 16.9844 14.6478 16.9842 14.6241C16.9842 14.58 16.9662 14.5358 16.9562 14.4917C16.9501 14.4677 16.8038 13.9243 16.7115 13.5834C16.7015 13.5453 16.6935 13.5072 16.6935 13.4691C16.6955 13.3508 16.7556 13.2445 16.8459 13.1783ZM11.502 9.05762C11.103 9.05762 10.7801 8.73478 10.7801 8.33774C10.7801 7.94071 11.103 7.61788 11.502 7.61788C11.901 7.61788 12.2239 7.94071 12.2239 8.33774C12.2239 8.73478 11.899 9.05762 11.502 9.05762ZM15.1094 9.05762C14.7103 9.05762 14.3875 8.73478 14.3875 8.33774C14.3875 7.94071 14.7103 7.61788 15.1094 7.61788C15.5084 7.61788 15.8312 7.94071 15.8312 8.33774C15.8303 8.52872 15.7539 8.71157 15.6186 8.84643C15.4834 8.98128 15.3003 9.05719 15.1094 9.05762Z" fill="black"/>
</svg>
