<svg width="19" height="13" viewBox="0 0 19 13" fill="none" xmlns="http://www.w3.org/2000/svg">
<path d="M18.5417 2.22053C18.4394 1.83961 18.2389 1.49224 17.9602 1.21318C17.6815 0.93412 17.3344 0.733155 16.9536 0.630397C15.5519 0.253418 9.93335 0.253418 9.93335 0.253418C9.93335 0.253418 4.31475 0.253418 2.91311 0.628392C2.53216 0.730816 2.18487 0.93167 1.90611 1.21078C1.62735 1.4899 1.42693 1.83744 1.32499 2.21852C0.950012 3.62217 0.950012 6.54977 0.950012 6.54977C0.950012 6.54977 0.950012 9.47738 1.32499 10.879C1.53152 11.653 2.14111 12.2626 2.91311 12.4691C4.31475 12.8461 9.93335 12.8461 9.93335 12.8461C9.93335 12.8461 15.5519 12.8461 16.9536 12.4691C17.7276 12.2626 18.3352 11.653 18.5417 10.879C18.9167 9.47738 18.9167 6.54977 18.9167 6.54977C18.9167 6.54977 18.9167 3.62217 18.5417 2.22053ZM8.14871 9.23675V3.86279L12.8008 6.52972L8.14871 9.23675Z" fill="black"/>
</svg>
