<svg width="180" height="24" viewBox="0 0 180 24" fill="none" xmlns="http://www.w3.org/2000/svg">
<path d="M2.76418 0.397789H0V23.6022H2.76418V5.46961L10.6289 18.3315L18.4937 5.43646V23.6022H21.2579V0.397789H18.5924L10.6948 13.3591L2.76418 0.397789Z" fill="black"/>
<path d="M43.5547 0.397789V23.6022H46.3189V0.397789H43.5547Z" fill="black"/>
<path d="M69.1025 0.397789V23.6022H71.8667V0.397789H69.1025Z" fill="black"/>
<path d="M104.786 17.6685C104.786 18.2983 104.654 18.8287 104.424 19.2928C104.161 19.7569 103.864 20.1215 103.469 20.4199C103.075 20.7514 102.614 20.9834 102.087 21.116C101.561 21.2818 101.034 21.3481 100.508 21.3481C99.8497 21.3481 99.2574 21.2486 98.7309 21.0497C98.2044 20.8508 97.7108 20.5856 97.3159 20.2541C96.8881 19.9227 96.5261 19.558 96.1971 19.1271C95.868 18.6961 95.6376 18.232 95.4402 17.768L93.1367 19.1602C93.4 19.7569 93.729 20.3536 94.1897 20.9503C94.6175 21.547 95.144 22.0442 95.7693 22.5083C96.3616 22.9724 97.0855 23.337 97.8753 23.6022C98.6651 23.8674 99.5536 24 100.541 24C101.528 24 102.449 23.8674 103.305 23.5691C104.161 23.2707 104.917 22.8398 105.576 22.2762C106.201 21.7127 106.694 21.0166 107.056 20.221C107.418 19.4254 107.616 18.4972 107.616 17.4696C107.616 16.6077 107.484 15.8785 107.221 15.2155C106.958 14.5856 106.563 14.0221 106.069 13.4917C105.576 12.9945 104.983 12.5304 104.259 12.0994C103.535 11.6685 102.746 11.2376 101.89 10.8398C101.1 10.5083 100.376 10.1436 99.751 9.81215C99.0929 9.48066 98.5663 9.14917 98.1386 8.78453C97.6779 8.45304 97.3488 8.05525 97.1184 7.65746C96.8552 7.25967 96.7565 6.76243 96.7565 6.19889C96.7565 5.76795 96.8223 5.33702 96.9868 4.90608C97.1514 4.47514 97.4146 4.07735 97.7437 3.74586C98.0727 3.41436 98.4676 3.14917 98.9283 2.95028C99.389 2.75138 99.9484 2.65193 100.607 2.65193C101.133 2.65193 101.627 2.75138 102.087 2.88398C102.548 3.01657 102.943 3.21547 103.338 3.44751C103.733 3.67956 104.062 3.94475 104.358 4.20994C104.654 4.50829 104.917 4.80663 105.115 5.07182L107.188 3.38122C106.925 3.01657 106.563 2.61878 106.168 2.22099C105.74 1.8232 105.246 1.45856 104.72 1.12707C104.161 0.79558 103.535 0.530386 102.844 0.331491C102.153 0.132597 101.396 0 100.607 0C99.4877 0 98.5334 0.198894 97.7108 0.563535C96.8881 0.961325 96.1971 1.42541 95.6705 2.0221C95.1111 2.61878 94.6833 3.31492 94.4201 4.07735C94.1239 4.83978 93.9923 5.60221 93.9923 6.36464C93.9923 7.29282 94.1568 8.12155 94.5517 8.81768C94.9137 9.51381 95.4073 10.1105 95.9996 10.6409C96.5919 11.1713 97.283 11.6354 98.0398 12.0331C98.7967 12.4309 99.5536 12.8287 100.31 13.1602C100.936 13.4917 101.528 13.7901 102.087 14.0552C102.614 14.3204 103.108 14.6519 103.502 14.9834C103.897 15.3149 104.193 15.7127 104.424 16.1436C104.654 16.5746 104.786 17.0718 104.786 17.6685Z" fill="black"/>
<path d="M132.855 3.04972V23.6022H135.619V3.04972H142.234V0.397789H126.241V3.04972H132.855Z" fill="black"/>
<path d="M165.784 14.6851L169.733 4.37569L173.682 14.6851H165.784ZM168.45 0.397789L159.4 23.6022H162.362L164.764 17.337H174.702L177.104 23.6022H180L171.016 0.397789H168.45Z" fill="black"/>
</svg>
